<svg width="18" height="18" viewBox="0 0 18 18" fill="none" xmlns="http://www.w3.org/2000/svg">
<g clip-path="url(#clip0_1_931)">
<path d="M15.3 1.8C15.4182 1.8 15.5352 1.82328 15.6444 1.86851C15.7536 1.91374 15.8528 1.98003 15.9364 2.0636C16.02 2.14718 16.0863 2.24639 16.1315 2.35558C16.1767 2.46478 16.2 2.58181 16.2 2.7V5.4C16.2 5.6387 16.1052 5.86761 15.9364 6.0364C15.7676 6.20518 15.5387 6.3 15.3 6.3H12.6C12.3613 6.3 12.1324 6.20518 11.9636 6.0364C11.7948 5.86761 11.7 5.6387 11.7 5.4V2.7C11.7 2.46131 11.7948 2.23239 11.9636 2.0636C12.1324 1.89482 12.3613 1.8 12.6 1.8H15.3ZM15.3 0H12.6C11.8839 0 11.1972 0.284463 10.6908 0.790812C10.1845 1.29716 9.9 1.98392 9.9 2.7V5.4C9.9 5.75457 9.96984 6.10567 10.1055 6.43325C10.2412 6.76082 10.4401 7.05847 10.6908 7.30919C11.1972 7.81554 11.8839 8.1 12.6 8.1H15.3C15.6546 8.1 16.0057 8.03016 16.3332 7.89447C16.6608 7.75879 16.9585 7.55991 17.2092 7.30919C17.4599 7.05847 17.6588 6.76082 17.7945 6.43325C17.9302 6.10567 18 5.75457 18 5.4V2.7C18 1.98392 17.7155 1.29716 17.2092 0.790812C16.7028 0.284463 16.0161 0 15.3 0ZM5.4 1.8C5.51819 1.8 5.63522 1.82328 5.74442 1.86851C5.85361 1.91374 5.95282 1.98003 6.0364 2.0636C6.11997 2.14718 6.18626 2.24639 6.23149 2.35558C6.27672 2.46478 6.3 2.58181 6.3 2.7V5.4C6.3 5.6387 6.20518 5.86761 6.0364 6.0364C5.86761 6.20518 5.6387 6.3 5.4 6.3H2.7C2.46131 6.3 2.23239 6.20518 2.0636 6.0364C1.89482 5.86761 1.8 5.6387 1.8 5.4V2.7C1.8 2.46131 1.89482 2.23239 2.0636 2.0636C2.23239 1.89482 2.46131 1.8 2.7 1.8H5.4ZM5.4 0H2.7C1.98392 0 1.29716 0.284463 0.790812 0.790812C0.284463 1.29716 0 1.98392 0 2.7L0 5.4C0 5.75457 0.0698376 6.10567 0.205525 6.43325C0.341213 6.76082 0.540094 7.05847 0.790812 7.30919C1.29716 7.81554 1.98392 8.1 2.7 8.1H5.4C5.75457 8.1 6.10567 8.03016 6.43325 7.89447C6.76082 7.75879 7.05847 7.55991 7.30919 7.30919C7.55991 7.05847 7.75879 6.76082 7.89447 6.43325C8.03016 6.10567 8.1 5.75457 8.1 5.4V2.7C8.1 2.34543 8.03016 1.99433 7.89447 1.66675C7.75879 1.33918 7.55991 1.04153 7.30919 0.790812C7.05847 0.540094 6.76082 0.341213 6.43325 0.205525C6.10567 0.0698376 5.75457 0 5.4 0ZM15.3 11.7C15.4182 11.7 15.5352 11.7233 15.6444 11.7685C15.7536 11.8137 15.8528 11.88 15.9364 11.9636C16.02 12.0472 16.0863 12.1464 16.1315 12.2556C16.1767 12.3648 16.2 12.4818 16.2 12.6V15.3C16.2 15.5387 16.1052 15.7676 15.9364 15.9364C15.7676 16.1052 15.5387 16.2 15.3 16.2H12.6C12.3613 16.2 12.1324 16.1052 11.9636 15.9364C11.7948 15.7676 11.7 15.5387 11.7 15.3V12.6C11.7 12.4818 11.7233 12.3648 11.7685 12.2556C11.8137 12.1464 11.88 12.0472 11.9636 11.9636C12.0472 11.88 12.1464 11.8137 12.2556 11.7685C12.3648 11.7233 12.4818 11.7 12.6 11.7H15.3ZM15.3 9.9H12.6C11.8839 9.9 11.1972 10.1845 10.6908 10.6908C10.1845 11.1972 9.9 11.8839 9.9 12.6V15.3C9.9 16.0161 10.1845 16.7028 10.6908 17.2092C11.1972 17.7155 11.8839 18 12.6 18H15.3C16.0161 18 16.7028 17.7155 17.2092 17.2092C17.7155 16.7028 18 16.0161 18 15.3V12.6C18 11.8839 17.7155 11.1972 17.2092 10.6908C16.7028 10.1845 16.0161 9.9 15.3 9.9ZM5.4 11.7C5.51819 11.7 5.63522 11.7233 5.74442 11.7685C5.85361 11.8137 5.95282 11.88 6.0364 11.9636C6.11997 12.0472 6.18626 12.1464 6.23149 12.2556C6.27672 12.3648 6.3 12.4818 6.3 12.6V15.3C6.3 15.5387 6.20518 15.7676 6.0364 15.9364C5.86761 16.1052 5.6387 16.2 5.4 16.2H2.7C2.46131 16.2 2.23239 16.1052 2.0636 15.9364C1.89482 15.7676 1.8 15.5387 1.8 15.3V12.6C1.8 12.4818 1.82328 12.3648 1.86851 12.2556C1.91374 12.1464 1.98003 12.0472 2.0636 11.9636C2.14718 11.88 2.24639 11.8137 2.35558 11.7685C2.46478 11.7233 2.58181 11.7 2.7 11.7H5.4ZM5.4 9.9H2.7C1.98392 9.9 1.29716 10.1845 0.790812 10.6908C0.284463 11.1972 0 11.8839 0 12.6L0 15.3C0 16.0161 0.284463 16.7028 0.790812 17.2092C1.29716 17.7155 1.98392 18 2.7 18H5.4C6.11608 18 6.80284 17.7155 7.30919 17.2092C7.81554 16.7028 8.1 16.0161 8.1 15.3V12.6C8.1 12.2454 8.03016 11.8943 7.89447 11.5668C7.75879 11.2392 7.55991 10.9415 7.30919 10.6908C7.05847 10.4401 6.76082 10.2412 6.43325 10.1055C6.10567 9.96984 5.75457 9.9 5.4 9.9Z" fill="#3FDD78"/>
</g>
<defs>
<clipPath id="clip0_1_931">
<rect width="18" height="18" fill="white"/>
</clipPath>
</defs>
</svg>
