<svg width="21" height="18" viewBox="0 0 21 18" fill="none" xmlns="http://www.w3.org/2000/svg">
<path d="M10.3282 18C9.81708 18 9.33936 17.7583 9.05035 17.3513L8.62842 16.7586C8.61255 16.74 8.59269 16.7254 8.57033 16.7156C8.54797 16.7059 8.52369 16.7014 8.49932 16.7024L2.07262 16.737C0.929868 16.737 0 15.8476 0 14.754V2.01743C0 0.923826 0.929868 0.034641 2.07262 0.034641L7.2311 0C8.2381 0 9.1871 0.366751 9.90167 1.03278C10.0579 1.1784 10.2012 1.33737 10.3299 1.50789C10.4576 1.33963 10.5995 1.18257 10.754 1.03842C11.47 0.369571 12.4186 0.00100707 13.4252 0.00100707H18.5549C19.6976 0.00100707 20.6275 0.890595 20.6275 1.984V14.7198C20.6275 15.8132 19.6976 16.7026 18.5549 16.7026H12.1572C12.1328 16.7015 12.1084 16.706 12.086 16.7158C12.0636 16.7255 12.0437 16.7402 12.0279 16.7588L11.6061 17.3515C11.3171 17.7575 10.8394 18 10.3282 18ZM2.07262 1.44485C1.70707 1.44485 1.40981 1.70184 1.40981 2.01784V14.754C1.40981 15.07 1.70707 15.3272 2.07262 15.3272L8.49932 15.2926C9.01047 15.2926 9.4882 15.5342 9.77721 15.9411L10.1989 16.534C10.236 16.586 10.3073 16.5902 10.3282 16.5902C10.3492 16.5902 10.4203 16.586 10.4573 16.534L10.8803 15.9411C11.1693 15.5351 11.6468 15.2926 12.1582 15.2926H18.5549C18.9204 15.2926 19.2177 15.0356 19.2177 14.7196V1.98299C19.2177 1.66699 18.9204 1.40981 18.5549 1.40981H13.4252C12.1062 1.40981 11.0331 2.39184 11.0331 3.59863V12.8832C11.0331 13.0702 10.9589 13.2495 10.8267 13.3817C10.6945 13.5138 10.5152 13.5881 10.3282 13.5881C10.1413 13.5881 9.96199 13.5138 9.8298 13.3817C9.6976 13.2495 9.62334 13.0702 9.62334 12.8832V3.59863C9.62334 3.0194 9.38165 2.47441 8.94059 2.06416C8.48784 1.64122 7.88082 1.40981 7.2311 1.40981L2.07262 1.44485Z" fill="#EC7D16"/>
<path d="M7.30109 5.3434H3.97495C3.788 5.3434 3.60871 5.26913 3.47651 5.13694C3.34432 5.00474 3.27005 4.82545 3.27005 4.6385C3.27005 4.45154 3.34432 4.27225 3.47651 4.14006C3.60871 4.00786 3.788 3.93359 3.97495 3.93359H7.30109C7.48804 3.93359 7.66734 4.00786 7.79953 4.14006C7.93173 4.27225 8.00599 4.45154 8.00599 4.6385C8.00599 4.82545 7.93173 5.00474 7.79953 5.13694C7.66734 5.26913 7.48804 5.3434 7.30109 5.3434ZM6.00809 8.40973H3.97395C3.78699 8.40973 3.6077 8.33546 3.4755 8.20327C3.34331 8.07107 3.26904 7.89178 3.26904 7.70482C3.26904 7.51787 3.34331 7.33858 3.4755 7.20638C3.6077 7.07419 3.78699 6.99992 3.97395 6.99992H6.00809C6.19505 6.99992 6.37434 7.07419 6.50654 7.20638C6.63873 7.33858 6.713 7.51787 6.713 7.70482C6.713 7.89178 6.63873 8.07107 6.50654 8.20327C6.37434 8.33546 6.19505 8.40973 6.00809 8.40973ZM16.6791 5.3434H13.3532C13.1662 5.3434 12.9869 5.26913 12.8547 5.13694C12.7225 5.00474 12.6483 4.82545 12.6483 4.6385C12.6483 4.45154 12.7225 4.27225 12.8547 4.14006C12.9869 4.00786 13.1662 3.93359 13.3532 3.93359H16.6791C16.8661 3.93359 17.0454 4.00786 17.1776 4.14006C17.3098 4.27225 17.384 4.45154 17.384 4.6385C17.384 4.82545 17.3098 5.00474 17.1776 5.13694C17.0454 5.26913 16.8661 5.3434 16.6791 5.3434ZM16.6791 8.40973H14.646C14.459 8.40973 14.2797 8.33546 14.1475 8.20327C14.0153 8.07107 13.9411 7.89178 13.9411 7.70482C13.9411 7.51787 14.0153 7.33858 14.1475 7.20638C14.2797 7.07419 14.459 6.99992 14.646 6.99992H16.6791C16.8661 6.99992 17.0454 7.07419 17.1776 7.20638C17.3098 7.33858 17.384 7.51787 17.384 7.70482C17.384 7.89178 17.3098 8.07107 17.1776 8.20327C17.0454 8.33546 16.8661 8.40973 16.6791 8.40973Z" fill="#EC7D16"/>
</svg>
