<?xml version="1.0" standalone="no"?><!DOCTYPE svg PUBLIC "-//W3C//DTD SVG 1.1//EN" "http://www.w3.org/Graphics/SVG/1.1/DTD/svg11.dtd"><svg t="1719370934483" class="icon" viewBox="0 0 1024 1024" version="1.1" xmlns="http://www.w3.org/2000/svg" p-id="14158" xmlns:xlink="http://www.w3.org/1999/xlink" width="200" height="200"><path d="M826.215184 357.961397q48.545039-117.566895 96.857009-235.133791a85.370014 85.370014 0 0 0-23.872972-101.018964 93.427558 93.427558 0 0 0-147.299899 38.889305q-71.58562 172.604584-142.472032 345.442237c-3.795703 9.056413-6.659127 16.647819-19.378061 11.320516a40.22113 40.22113 0 0 0-13.318255-1.132051 110.141968 110.141968 0 0 0-89.898221 40.787155c-16.314862 20.37693-32.13029 40.98693-47.479578 62.063068a135.080401 135.080401 0 0 1-29.533231 29.0005 674.269951 674.269951 0 0 1-288.972836 122.761015c-16.314862 2.730242-25.737528 9.988691-27.868448 22.20819a28.101518 28.101518 0 0 0 15.815427 29.966074c31.431082 19.977382 62.595798 39.954765 94.25995 59.932147a3130.489114 3130.489114 0 0 0 347.539862 194.812774 507.658582 507.658582 0 0 0 128.28809 43.284328 53.839046 53.839046 0 0 0 68.056283-29.966073c3.529338-5.893328 7.091971-11.786656 10.388239-17.679984a472.331911 472.331911 0 0 0 67.323778-263.202013 183.39237 183.39237 0 0 1-2.13092-36.025879c3.529338-26.270258 6.858901-52.340742 10.155169-78.611a101.818059 101.818059 0 0 0-49.943456-105.780239c-7.32504-4.761276-7.791179-8.157431-4.727981-15.182811 16.314862-39.055783 32.163586-78.011678 48.212083-116.734504z m-127.821951 605.680938a10.321648 10.321648 0 0 1-12.28609 5.893327c-4.72798-0.898982-9.455961-1.365121-13.950872-2.497172-7.091971-1.797964-14.183941-4.295137-22.208191-6.659128a716.222454 716.222454 0 0 0 38.989192-64.79331 25.238093 25.238093 0 0 0-2.363991-28.767431 29.100387 29.100387 0 0 0-48.678221 4.994346c-10.854378 20.609999-23.306946 40.321017-35.925993 59.565895-3.529338 5.194119-5.893328 7.258449-12.752229 3.862294-14.65008-7.691292-29.966074-14.483602-46.314231-22.407964 8.490388-9.755622 16.647819-18.578966 24.33911-27.868448a352.634095 352.634095 0 0 0 53.27302-81.108173 27.468901 27.468901 0 0 0-12.752229-40.321017 29.466639 29.466639 0 0 0-39.222261 18.578966 352.068069 352.068069 0 0 1-72.051759 98.521791c-3.063199 3.329564-5.660258 5.194119-10.854378 2.264103-49.943456-26.969466-99.220999-54.804619-148.864794-84.038188 21.275912-12.685638 42.05239-24.705363 62.129659-37.357705 21.275912-13.318255 42.285459-27.402309 63.095233-41.686138a26.63651 26.63651 0 0 0 9.68903-39.954765 29.033796 29.033796 0 0 0-42.518528-3.862294 1563.896084 1563.896084 0 0 1-131.35129 82.007155 25.071615 25.071615 0 0 1-30.964942-0.466139c-22.907398-15.615654-47.246509-29.666413-73.716541-45.748206 28.834022-8.390501 54.804619-16.314862 80.342373-26.270258a702.537947 702.537947 0 0 0 171.306053-95.824844 17.113958 17.113958 0 0 1 18.911922-2.730242q146.00137 55.736897 292.036035 110.974359a15.549063 15.549063 0 0 1 12.053021 16.314862 430.845547 430.845547 0 0 1-69.388108 249.384324z m77.245878-375.574789c-1.897851 16.081793-4.028772 32.163586-5.893328 48.245378-0.699208 5.427189-1.664782 7.691292-8.490387 5.19412q-130.052759-49.943456-260.138814-98.75486c-5.893328-2.264103-7.32504-3.862294-3.063199-9.056414 11.120743-14.050759 21.508982-28.767431 32.596429-43.051259a54.105411 54.105411 0 0 1 44.64945-19.977382 63.894328 63.894328 0 0 1 23.306946 5.660258c46.081162 18.578966 92.395393 36.625201 139.641903 52.773585a51.075508 51.075508 0 0 1 37.424296 58.99987z m-50.576073-132.749706c-2.830129 7.258449-5.893328 7.924362-12.985298 4.994346a623.29433 623.29433 0 0 0-45.848093-17.446914c-7.791179-2.730242-9.68903-5.194119-6.392762-13.318255q56.003262-133.515506 111.507089-267.297376c12.28609-29.433343 24.106041-58.899982 36.85827-87.900483a34.960419 34.960419 0 0 1 64.726719 3.329564 67.556848 67.556848 0 0 1 1.664782 9.988691 32.762907 32.762907 0 0 1-3.529337 14.283828q-72.950741 176.500173-145.801596 353.399895z" p-id="14159"></path></svg>