<svg width="18" height="18" viewBox="0 0 18 18" fill="none" xmlns="http://www.w3.org/2000/svg">
<path d="M11.7002 4.94961C11.7002 5.30765 11.8424 5.65103 12.0956 5.9042C12.3488 6.15738 12.6922 6.29961 13.0502 6.29961C13.4082 6.29961 13.7516 6.15738 14.0048 5.9042C14.258 5.65103 14.4002 5.30765 14.4002 4.94961C14.4002 4.59157 14.258 4.24819 14.0048 3.99502C13.7516 3.74184 13.4082 3.59961 13.0502 3.59961C12.6922 3.59961 12.3488 3.74184 12.0956 3.99502C11.8424 4.24819 11.7002 4.59157 11.7002 4.94961Z" fill="#D84C10"/>
<path d="M15.3 0H2.7C1.215 0 0 1.215 0 2.7V15.3C0 16.785 1.215 18 2.7 18H15.3C16.785 18 18 16.785 18 15.3V2.7C18 1.215 16.785 0 15.3 0ZM2.7 16.2C2.205 16.2 1.8 15.795 1.8 15.3V8.1H2.25C7.47 8.1 11.88 11.52 13.365 16.2H2.7ZM16.2 15.3C16.2 15.795 15.795 16.2 15.3 16.2H15.255C14.805 14.535 14.04 13.005 13.05 11.7C14.04 11.43 15.12 11.25 16.2 11.25V15.3ZM16.2 9.45C14.625 9.45 13.14 9.72 11.745 10.215C9.315 7.785 5.94 6.3 2.25 6.3H1.8V2.7C1.8 2.205 2.205 1.8 2.7 1.8H15.3C15.795 1.8 16.2 2.205 16.2 2.7V9.45Z" fill="#D84C10"/>
</svg>
