<svg width="18" height="18" viewBox="0 0 18 18" fill="none" xmlns="http://www.w3.org/2000/svg">
<g clip-path="url(#clip0_1_1035)">
<g clip-path="url(#clip1_1_1035)">
<path d="M15.192 0.899902H2.8125C2.06808 0.902268 1.35477 1.19873 0.827964 1.72469C0.301159 2.25065 0.00355805 2.96349 0 3.7079L0 12.1229C0.00237324 12.8681 0.299451 13.5821 0.826384 14.109C1.35332 14.6359 2.06731 14.933 2.8125 14.9354H4.6125L5.121 16.7894C5.16938 16.9645 5.274 17.1188 5.41875 17.2286C5.5635 17.3384 5.74033 17.3975 5.922 17.3969C6.0834 17.3931 6.24003 17.3414 6.372 17.2484L9.702 14.9354H15.192C15.9368 14.933 16.6503 14.6358 17.1765 14.1087C17.7027 13.5817 17.9988 12.8677 18 12.1229V3.7079C17.9976 2.9639 17.701 2.25106 17.1749 1.72497C16.6488 1.19888 15.936 0.902276 15.192 0.899902ZM16.2 12.1499C16.2 12.4177 16.0939 12.6745 15.905 12.8643C15.7161 13.054 15.4598 13.1612 15.192 13.1624H10.2645C9.53771 13.1618 8.82807 13.3832 8.2305 13.7969L6.48 14.9894L6.3315 14.4584C6.22716 14.0787 6.00122 13.7438 5.6883 13.5048C5.37537 13.2659 4.99273 13.1361 4.599 13.1354H2.799C2.53318 13.1307 2.27978 13.0221 2.09305 12.8328C1.90633 12.6436 1.80113 12.3888 1.8 12.1229V3.7079C1.80236 3.44052 1.90994 3.18482 2.09944 2.99616C2.28893 2.80751 2.54511 2.70108 2.8125 2.6999H15.192C15.4583 2.7034 15.7126 2.81072 15.9009 2.999C16.0892 3.18729 16.1965 3.44165 16.2 3.7079V12.1499Z" fill="#3E90F0"/>
<path d="M13.671 4.65308H4.671C4.4323 4.65308 4.20338 4.7479 4.0346 4.91668C3.86582 5.08546 3.771 5.31438 3.771 5.55308C3.771 5.79177 3.86582 6.02069 4.0346 6.18947C4.20338 6.35826 4.4323 6.45308 4.671 6.45308H13.671C13.7892 6.45308 13.9062 6.4298 14.0154 6.38457C14.1246 6.33934 14.2238 6.27305 14.3074 6.18947C14.391 6.1059 14.4573 6.00668 14.5025 5.89749C14.5477 5.7883 14.571 5.67127 14.571 5.55308C14.571 5.43489 14.5477 5.31785 14.5025 5.20866C14.4573 5.09947 14.391 5.00025 14.3074 4.91668C14.2238 4.83311 14.1246 4.76681 14.0154 4.72158C13.9062 4.67636 13.7892 4.65308 13.671 4.65308ZM10.071 8.63558H4.671C4.55281 8.63558 4.43577 8.65886 4.32658 8.70408C4.21739 8.74931 4.11817 8.81561 4.0346 8.89918C3.95103 8.98275 3.88473 9.08197 3.8395 9.19116C3.79428 9.30035 3.771 9.41739 3.771 9.53558C3.771 9.65377 3.79428 9.7708 3.8395 9.87999C3.88473 9.98918 3.95103 10.0884 4.0346 10.172C4.11817 10.2555 4.21739 10.3218 4.32658 10.3671C4.43577 10.4123 4.55281 10.4356 4.671 10.4356H10.071C10.3097 10.4356 10.5386 10.3408 10.7074 10.172C10.8762 10.0032 10.971 9.77427 10.971 9.53558C10.971 9.29688 10.8762 9.06796 10.7074 8.89918C10.5386 8.7304 10.3097 8.63558 10.071 8.63558Z" fill="#3E90F0"/>
</g>
</g>
<defs>
<clipPath id="clip0_1_1035">
<rect width="18" height="18" fill="white"/>
</clipPath>
<clipPath id="clip1_1_1035">
<rect width="18" height="18" fill="white"/>
</clipPath>
</defs>
</svg>
