<?xml version="1.0" standalone="no"?><!DOCTYPE svg PUBLIC "-//W3C//DTD SVG 1.1//EN" "http://www.w3.org/Graphics/SVG/1.1/DTD/svg11.dtd"><svg t="1719636265227" class="icon" viewBox="0 0 1024 1024" version="1.1" xmlns="http://www.w3.org/2000/svg" p-id="15626" xmlns:xlink="http://www.w3.org/1999/xlink" width="200" height="200"><path d="M953.535997 36.642743C931.750397 17.963886 901.964798 10.053486 872.107884 14.606628l-511.999997 79.4112C301.750858 103.052799 256.000002 156.035656 256.000002 214.643199l0 507.999083C229.856916 705.142853 198.429259 694.857139 164.571431 694.857139c-90.892799 0-164.571428 73.678628-164.571428 164.571428s73.678628 164.571428 164.571428 164.571428 164.571428-73.678628 164.571428-164.571428L329.142858 392.266969l585.142854-90.750171 0 327.411198c-26.143086-17.499428-57.570743-27.785143-91.428571-27.785143-90.892799 0-164.571428 73.678628-164.571428 164.571428s73.678628 164.571428 164.571428 164.571428 164.571428-73.678628 164.571428-164.571428L987.428569 112.554056C987.428569 82.768457 975.071083 55.089371 953.535997 36.642743zM164.571431 950.857137c-50.428343 0-91.428571-41.000228-91.428571-91.428571s41.000228-91.428571 91.428571-91.428571 91.428571 41.000228 91.428571 91.428571S214.999773 950.857137 164.571431 950.857137zM329.142858 318.250055l0-103.606857c0-22.268343 19.713828-44.856685 42.177828-48.340114l511.999997-79.4112c9.071543-1.393371 17.034971 0.4992 22.606628 5.2864 5.463771 4.679314 8.356571 11.732114 8.356571 20.375771l0 114.945828L329.142858 318.250055zM822.857141 857.142852c-50.428343 0-91.428571-41.000228-91.428571-91.428571s41.000228-91.428571 91.428571-91.428571 91.428571 41.000228 91.428571 91.428571S873.285484 857.142852 822.857141 857.142852z" fill="#F69661" p-id="15627"></path></svg>