<svg width="20" height="18" viewBox="0 0 20 18" fill="none" xmlns="http://www.w3.org/2000/svg">
<path d="M11.1683 0.0766603C11.0374 0.0156649 10.8928 -0.00964515 10.749 0.00329638C10.6052 0.0162379 10.4674 0.0669708 10.3495 0.150351L5.16656 4.08054H2.45637C1.8049 4.08054 1.18011 4.33934 0.719454 4.79999C0.258795 5.26065 0 5.88544 0 6.53691V11.4496C0 12.1011 0.258795 12.7259 0.719454 13.1866C1.18011 13.6472 1.8049 13.906 2.45637 13.906H5.16656L10.3413 17.8362C10.4853 17.9442 10.6608 18.0017 10.8408 18C10.9655 18.0005 11.0888 17.9725 11.201 17.9181C11.3388 17.8506 11.4549 17.7457 11.536 17.6154C11.617 17.4851 11.6599 17.3346 11.6596 17.1812V0.805383C11.6554 0.649782 11.607 0.498589 11.52 0.369523C11.433 0.240457 11.311 0.138867 11.1683 0.0766603ZM9.98923 15.5354L5.89528 12.4322C5.86145 12.4125 5.82581 12.396 5.78884 12.3831C5.73285 12.3476 5.67223 12.3201 5.60871 12.3012H5.53502C5.45629 12.2896 5.3763 12.2896 5.29757 12.3012H2.45637C2.23921 12.3012 2.03095 12.2149 1.8774 12.0614C1.72384 11.9078 1.63758 11.6996 1.63758 11.4824V6.56966C1.63758 6.3525 1.72384 6.14424 1.8774 5.99069C2.03095 5.83714 2.23921 5.75087 2.45637 5.75087H5.28938C5.37555 5.7711 5.46523 5.7711 5.55139 5.75087H5.61689L5.72334 5.70174C5.78648 5.67836 5.84688 5.64816 5.90347 5.61168L9.99742 2.51665L9.98923 15.5354Z" fill="#EA55D2"/>
<path d="M15.8846 15.494C15.6907 15.4978 15.5017 15.4325 15.3514 15.31C15.2011 15.1874 15.0991 15.0155 15.0637 14.8248C15.0284 14.634 15.0618 14.437 15.1582 14.2686C15.2545 14.1003 15.4075 13.9716 15.5899 13.9056C16.9736 13.3733 17.9807 11.3182 17.9807 8.99282C17.9807 6.66745 16.8999 4.51404 15.467 4.08008C15.3644 4.04782 15.269 3.99565 15.1865 3.92656C15.104 3.85746 15.0359 3.77278 14.9861 3.67736C14.8855 3.48465 14.8656 3.25988 14.9307 3.0525C14.9959 2.84511 15.1407 2.6721 15.3335 2.57153C15.5262 2.47095 15.7509 2.45104 15.9583 2.51619C18.1117 3.19579 19.6183 5.86504 19.6183 9.00919C19.6183 12.006 18.2018 14.6425 16.1712 15.4203C16.0822 15.4654 15.9844 15.4905 15.8846 15.494Z" fill="#EA55D2"/>
<path d="M14.1731 12.4816C13.9792 12.4854 13.7902 12.4201 13.6399 12.2976C13.4896 12.175 13.3876 12.0031 13.3522 11.8124C13.3169 11.6217 13.3503 11.4246 13.4467 11.2562C13.543 11.0879 13.696 10.9592 13.8784 10.8932C14.1693 10.6798 14.3983 10.393 14.5422 10.0622C14.686 9.73131 14.7395 9.36822 14.6972 9.00994C14.7409 8.64328 14.6823 8.27164 14.5276 7.93632C14.3729 7.60099 14.1284 7.31508 13.8211 7.11035C13.6137 7.04521 13.4407 6.90034 13.3401 6.70763C13.2395 6.51493 13.2196 6.29016 13.2847 6.08277C13.3499 5.87539 13.4948 5.70238 13.6875 5.6018C13.8802 5.50122 14.1049 5.48132 14.3123 5.54646C15.5078 5.92311 16.3347 7.3478 16.3347 9.00994C16.3903 9.70201 16.2405 10.3951 15.9041 11.0024C15.5676 11.6097 15.0595 12.1043 14.4433 12.4243C14.3566 12.4566 14.2655 12.4759 14.1731 12.4816Z" fill="#EA55D2"/>
</svg>
