<?xml version="1.0" standalone="no"?><!DOCTYPE svg PUBLIC "-//W3C//DTD SVG 1.1//EN" "http://www.w3.org/Graphics/SVG/1.1/DTD/svg11.dtd"><svg t="1719562556360" class="icon" viewBox="0 0 1024 1024" version="1.1" xmlns="http://www.w3.org/2000/svg" p-id="10180" xmlns:xlink="http://www.w3.org/1999/xlink" width="200" height="200"><path d="M855.8 684.8c-5.6 0-16.9-5.6-22.5-5.6L698 543.9c-11.3-11.3-11.3-28.2 0-39.4 11.3-11.3 28.2-11.3 39.4 0l118.3 118.3L974 504.5c11.3-11.3 28.2-11.3 39.4 0 11.3 11.3 11.3 28.2 0 39.4L878.3 679.2c-11.3 0-16.9 5.6-22.5 5.6zM303.5 543.9c-5.6 0-16.9-5.6-22.5-5.6L168.2 420 49.9 538.3c-11.3 11.3-28.2 11.3-39.4 0s-11.3-28.2 0-39.4L145.7 358c11.3-11.3 28.2-11.3 39.4 0l135.2 140.9c11.3 11.3 11.3 28.2 0 39.4 0.1 5.6-5.5 5.6-16.8 5.6z m180.3 343.8c-95.8 0-191.6-39.4-259.2-107.1C123.2 679.2 89.3 527 140.1 391.8c0-11.3 16.9-22.5 33.8-16.9 11.3 5.6 22.5 22.5 16.9 39.4C151.3 527 179.5 656.6 264 741.2c95.8 101.4 248 124 371.9 56.4 11.3-5.6 28.2 0 39.4 11.3 5.6 11.3 0 28.2-11.3 39.4-61.8 28.1-118.2 39.4-180.2 39.4z m377.6-225.4h-11.3c-16.9-5.6-22.5-22.5-16.9-33.8 39.4-112.7 11.3-242.3-73.3-326.9-95.8-95.8-248-124-371.9-56.4-11.3 5.6-28.2 0-39.4-11.3 0-22.5 5.6-39.4 16.9-45.1C506.4 110 686.7 138.2 805 256.5 906.5 358 934.7 510.1 889.6 645.4c-5.7 5.6-16.9 16.9-28.2 16.9z" p-id="10181"></path></svg>