<svg width="17" height="18" viewBox="0 0 17 18" fill="none" xmlns="http://www.w3.org/2000/svg">
<path d="M10.6561 11.5447C10.2322 11.5447 9.88534 11.1979 9.88534 10.774V10.0032C9.88534 9.57927 10.2322 9.23242 10.6561 9.23242C11.08 9.23242 11.4269 9.57927 11.4269 10.0032V10.774C11.4269 11.1979 11.08 11.5447 10.6561 11.5447ZM5.45339 11.5447C5.02947 11.5447 4.68262 11.1979 4.68262 10.774V10.0032C4.68262 9.57927 5.02947 9.23242 5.45339 9.23242C5.87732 9.23242 6.22417 9.57927 6.22417 10.0032V10.774C6.22417 11.1979 5.87732 11.5447 5.45339 11.5447Z" fill="#8E55EA"/>
<path d="M13.0261 18.0003H3.0831C1.38739 18.0003 0 16.6129 0 14.9172V11.8534C0 7.42146 3.60337 3.79883 8.05459 3.79883C12.5058 3.79883 16.1092 7.42146 16.1092 11.8534V14.898C16.1092 16.6129 14.741 18.0003 13.0261 18.0003ZM8.05459 5.34038C4.45122 5.34038 1.54155 8.26932 1.54155 11.8534V14.898C1.54155 15.7458 2.23524 16.4395 3.0831 16.4395H13.0453C13.8932 16.4395 14.5869 15.7458 14.5869 14.898V11.8534C14.5676 8.26932 11.658 5.34038 8.05459 5.34038Z" fill="#8E55EA"/>
<path d="M0.864544 3.08909C1.07089 3.44205 1.40899 3.69858 1.80447 3.80225C2.19995 3.90592 2.62041 3.84824 2.97337 3.6419C3.32632 3.43556 3.58285 3.09746 3.68652 2.70198C3.7902 2.3065 3.73252 1.88603 3.52618 1.53307C3.31984 1.18012 2.98174 0.92359 2.58625 0.819919C2.19077 0.716247 1.77031 0.773926 1.41735 0.980267C1.0644 1.18661 0.807867 1.52471 0.704196 1.92019C0.600525 2.31567 0.658204 2.73614 0.864544 3.08909Z" fill="#8E55EA"/>
<path d="M11.947 6.03356C12.3131 6.24552 12.7948 6.12991 13.0068 5.76379L14.741 2.79631C14.953 2.43019 14.8374 1.94846 14.4712 1.7365C14.1051 1.52453 13.6234 1.64015 13.4114 2.00627L11.6772 4.97375C11.446 5.33986 11.5808 5.8216 11.947 6.03356Z" fill="#8E55EA"/>
<path d="M13.3407 3.63802C13.5155 3.7402 13.7087 3.80696 13.9093 3.83448C14.1098 3.862 14.3138 3.84974 14.5097 3.79841C14.7055 3.74708 14.8893 3.65768 15.0506 3.53532C15.2119 3.41295 15.3475 3.26002 15.4496 3.08525C15.5518 2.91048 15.6185 2.7173 15.6461 2.51673C15.6736 2.31616 15.6613 2.11214 15.61 1.91631C15.5586 1.72049 15.4692 1.53669 15.3468 1.37542C15.2245 1.21415 15.0715 1.07856 14.8968 0.97639C14.722 0.87421 14.5288 0.807455 14.3283 0.779935C14.1277 0.752415 13.9237 0.76467 13.7278 0.816C13.532 0.86733 13.3482 0.95673 13.1869 1.07909C13.0256 1.20146 12.8901 1.35439 12.7879 1.52916C12.6857 1.70393 12.619 1.89712 12.5914 2.09768C12.5639 2.29825 12.5762 2.50227 12.6275 2.6981C12.6789 2.89393 12.7683 3.07772 12.8907 3.239C13.013 3.40027 13.166 3.53586 13.3407 3.63802Z" fill="#8E55EA"/>
<path d="M9.59606 15.2642H6.51296C6.08904 15.2642 5.74219 14.9174 5.74219 14.4934C5.74219 14.0695 6.08904 13.7227 6.51296 13.7227H9.59606C10.02 13.7227 10.3668 14.0695 10.3668 14.4934C10.3668 14.9174 10.02 15.2642 9.59606 15.2642Z" fill="#8E55EA"/>
<path d="M8.99892 2.95064C8.78695 2.95064 8.57499 2.85429 8.42083 2.70014L7.82348 2.02571L7.39956 2.62306C7.26467 2.83503 7.01417 2.95064 6.76367 2.95064H5.41482C4.99089 2.95064 4.64404 2.60379 4.64404 2.17987C4.64404 1.75594 4.99089 1.40909 5.41482 1.40909H6.37828L7.12979 0.33001C7.26467 0.137317 7.47664 0.0217008 7.70787 0.00243145C7.9391 -0.0168379 8.17033 0.0795088 8.32449 0.252933L9.32649 1.38982L10.868 1.37056C11.292 1.37056 11.6388 1.7174 11.6388 2.14133C11.6388 2.56525 11.292 2.9121 10.868 2.9121L8.99892 2.95064Z" fill="#8E55EA"/>
</svg>
