<svg width="22" height="22" viewBox="0 0 22 22" xmlns="http://www.w3.org/2000/svg">
<path d="M9.67784 12.3532L2.19992 1.21222L4.03035 0L11.0001 10.3842L17.9698 0L19.8002 1.21222L12.3223 12.3532L14.0757 14.9658C14.7014 14.1286 15.6046 13.5415 16.6236 13.3096C17.6426 13.0776 18.711 13.216 19.6373 13.6998C20.5637 14.1837 21.2875 14.9815 21.6793 15.9503C22.0711 16.9192 22.1053 17.9959 21.7757 18.9877C21.446 19.9794 20.7742 20.8215 19.8804 21.3631C18.9865 21.9047 17.9291 22.1104 16.8974 21.9435C15.8658 21.7766 14.9272 21.2479 14.2497 20.4521C13.5723 19.6563 13.2002 18.6454 13.2001 17.6003L11.0001 14.3222L8.80002 17.6003C8.79994 18.6454 8.42786 19.6563 7.7504 20.4521C7.07295 21.2479 6.13436 21.7766 5.10267 21.9435C4.07099 22.1104 3.01358 21.9047 2.11976 21.3631C1.22594 20.8215 0.554076 19.9794 0.224457 18.9877C-0.105163 17.9959 -0.0710135 16.9192 0.32079 15.9503C0.712594 14.9815 1.43647 14.1837 2.36281 13.6998C3.28915 13.216 4.35748 13.0776 5.37651 13.3096C6.39555 13.5415 7.29875 14.1286 7.92441 14.9658L9.67784 12.3532ZM4.39995 19.8003C4.68886 19.8003 4.97495 19.7434 5.24187 19.6329C5.50879 19.5223 5.75132 19.3602 5.95561 19.156C6.1599 18.9517 6.32196 18.7091 6.43252 18.4422C6.54308 18.1753 6.59999 17.8892 6.59999 17.6003C6.59999 17.3114 6.54308 17.0253 6.43252 16.7584C6.32196 16.4915 6.1599 16.2489 5.95561 16.0446C5.75132 15.8403 5.50879 15.6783 5.24187 15.5677C4.97495 15.4572 4.68886 15.4003 4.39995 15.4003C3.81647 15.4003 3.25688 15.632 2.84429 16.0446C2.4317 16.4572 2.19992 17.0168 2.19992 17.6003C2.19992 18.1838 2.4317 18.7434 2.84429 19.156C3.25688 19.5685 3.81647 19.8003 4.39995 19.8003ZM17.6002 19.8003C17.8891 19.8003 18.1752 19.7434 18.4421 19.6329C18.709 19.5223 18.9515 19.3602 19.1558 19.156C19.3601 18.9517 19.5222 18.7091 19.6327 18.4422C19.7433 18.1753 19.8002 17.8892 19.8002 17.6003C19.8002 17.3114 19.7433 17.0253 19.6327 16.7584C19.5222 16.4915 19.3601 16.2489 19.1558 16.0446C18.9515 15.8403 18.709 15.6783 18.4421 15.5677C18.1752 15.4572 17.8891 15.4003 17.6002 15.4003C17.0167 15.4003 16.4571 15.632 16.0445 16.0446C15.6319 16.4572 15.4001 17.0168 15.4001 17.6003C15.4001 18.1838 15.6319 18.7434 16.0445 19.156C16.4571 19.5685 17.0167 19.8003 17.6002 19.8003Z" />
</svg>
