<svg width="16" height="15" viewBox="0 0 16 15" xmlns="http://www.w3.org/2000/svg">
<path d="M15.7905 0.106032C15.7039 0.0446791 15.5995 0.00821897 15.4904 0.00123338C15.3814 -0.00575222 15.2725 0.0170485 15.1775 0.06677L14.7799 0.27818L13.6925 0.855363L12.0893 1.70771L10.1271 2.75134L7.98533 3.8896L5.82326 5.03893L3.80725 6.11058L2.10323 7.01646L0.873325 7.67082C0.679993 7.77367 0.485019 7.87451 0.292966 7.97938L0.267955 7.99263C-0.100817 8.18878 -0.0776317 8.6678 0.267955 8.86864L1.51795 9.59532L3.50146 10.7482L3.95786 11.0136C4.20231 11.1557 4.57711 11.0681 4.71293 10.8317C4.85679 10.5816 4.77592 10.2893 4.51504 10.1378L3.26486 9.41109L1.61178 8.45019L2.30971 8.07921L3.91241 7.2272L5.87511 6.1839L8.01691 5.04531L10.179 3.89564L12.195 2.82383L13.1386 2.32231L12.1828 3.39614C11.6238 4.02422 11.0648 4.65235 10.5059 5.28054L8.80812 7.18894L7.29233 8.8923L6.16045 10.1648C5.98154 10.3661 5.80172 10.5675 5.62354 10.7688C5.52423 10.8811 5.44792 10.995 5.44317 11.1495C5.44153 11.2039 5.44317 11.2588 5.44317 11.3133V14.4963C5.4445 14.5961 5.47766 14.6933 5.53852 14.776C5.59939 14.8586 5.6853 14.923 5.7856 14.9612C5.8859 14.9994 5.99619 15.0097 6.1028 14.9908C6.20941 14.9719 6.30766 14.9248 6.38537 14.8551L7.29908 14.0161L8.75701 12.676L8.85011 12.5905L10.0718 12.9804L12.4863 13.7509L13.0401 13.9277C13.3002 14.0106 13.6735 13.8319 13.719 13.5734L13.7796 13.2279C13.8346 12.9147 13.8894 12.6015 13.9439 12.2883C14.0253 11.8245 14.1067 11.3609 14.188 10.8973L14.4859 9.20019C14.5947 8.58039 14.7035 7.96064 14.8122 7.34095C14.9217 6.71534 15.0315 6.08966 15.1417 5.46393L15.4484 3.71158L15.7087 2.23121C15.7714 1.87516 15.8339 1.51907 15.8962 1.16291C15.9256 0.995129 15.9557 0.827343 15.9844 0.660732L15.9882 0.638584C16.0247 0.431536 15.9811 0.241267 15.7905 0.106032ZM14.4542 3.04614L14.1562 4.74329C14.0474 5.3631 13.9387 5.98284 13.83 6.60253C13.7205 7.22826 13.6106 7.85393 13.5005 8.47955L13.1932 10.2302L12.9336 11.7101L12.7489 12.7621L11.8178 12.465L9.40364 11.6943L8.84975 11.5176C8.66719 11.4593 8.44501 11.5265 8.31284 11.648L7.39912 12.4869L6.54639 13.2715V11.3252L6.63767 11.2222L7.32336 10.4527L8.34095 9.30908L9.57725 7.91914C10.0307 7.40975 10.4841 6.90024 10.9373 6.39062L12.3104 4.84699L13.5863 3.41477L14.588 2.28909C14.5431 2.54133 14.4985 2.79368 14.4542 3.04614Z"/>
</svg>
