<?xml version="1.0" standalone="no"?><!DOCTYPE svg PUBLIC "-//W3C//DTD SVG 1.1//EN" "http://www.w3.org/Graphics/SVG/1.1/DTD/svg11.dtd"><svg t="1718802047163" class="icon" viewBox="0 0 1024 1024" version="1.1" xmlns="http://www.w3.org/2000/svg" p-id="1680" id="mx_n_1718802047164" xmlns:xlink="http://www.w3.org/1999/xlink" width="200" height="200"><path d="M1017.358145 622.659875c-0.264999-3.879991-1.299997-7.459983-3.029993-10.519976-0.085-0.239999-0.14-0.499999-0.225-0.739998l-0.314999-0.08c-2.679994-4.24999-6.634985-7.359983-11.563974-8.299981l-126.810714-24.459945c4.42999-21.300952 6.799985-43.279902 6.799985-65.779852 0-23.539947-2.614994-46.499895-7.469983-68.719845l79.214821-30.670931c-0.08 0.19-0.154 0.379999-0.233999 0.569999l16.964961-7.049984 27.594938-10.689976c1.594996-0.609999 2.979993-1.519997 4.25499-2.539994l14.265968-5.919987c2.309995-11.739974 3.738992-23.759946 4.009991-36.069918 2.444994-111.469749-82.524814-205.479536-195.875558-224.419494-3.919991-1.339997-7.868982-1.909996-11.568974-1.669996-0.274999-0.03-0.539999-0.08-0.814998-0.11l-0.205 0.239999c-5.264988 0.559999-9.914978 2.669994-12.834971 6.489986l-75.409829 98.249778a378.612146 378.612146 0 0 0-68.764845-35.43092l35.51992-120.389728c1.334997-4.52099 0.165-9.209979-2.684994-13.36997l0.063999-0.3c-0.2-0.181-0.403999-0.339999-0.608998-0.509998-2.129995-2.829994-5.090989-5.329988-8.689981-7.310984-47.089894-37.719915-107.209758-55.648874-166.932623-52.879881-59.727865-2.769994-119.83973 15.159966-166.939623 52.879881-3.597992 1.979996-6.557985 4.47999-8.684981 7.310984-0.205 0.17-0.414999 0.328999-0.609998 0.509998l0.064999 0.3c-2.849994 4.159991-4.017991 8.84998-2.684994 13.36997l35.52192 120.389728a378.124147 378.124147 0 0 0-68.764845 35.43092l-75.409829-98.249778c-2.927993-3.819991-7.572983-5.930987-12.834971-6.489986l-0.208-0.239999c-0.271999 0.03-0.541999 0.08-0.814998 0.11-3.697992-0.239999-7.649983 0.329999-11.572974 1.669996C85.718247 146.20995 0.753438 240.220738 3.195433 351.689487c0.267999 12.310972 1.697996 24.339945 4.007991 36.069918l14.264968 5.919987c1.277997 1.020998 2.659994 1.929996 4.25499 2.539994l27.596938 10.689976 16.964961 7.049984c-0.083-0.19-0.155-0.379999-0.237999-0.569999l79.212821 30.680931c-4.849989 22.20995-7.466983 45.169898-7.466983 68.709845 0 22.499949 2.366995 44.4789 6.801985 65.779852L21.783391 603.02092c-4.927989 0.938998-8.88298 4.049991-11.562974 8.299981l-0.316999 0.08c-0.083 0.239999-0.14 0.499999-0.22 0.739998-1.731996 3.059993-2.769994 6.639985-3.034993 10.519976-27.191939 104.159765 30.87293 214.479516 141.417681 257.43942 12.211972 4.749989 24.604944 8.389981 37.071916 11.159974l11.584974-9.739978c1.511997-0.679998 2.964993-1.499997 4.211991-2.599994l21.656951-19.180956 13.782969-11.589974c-0.215-0.01-0.432999-0.029-0.654999-0.029l61.729861-54.659877c21.94995 14.559967 45.702897 26.889939 70.84984 36.769917l-35.149921 119.130731c-1.332997 4.51999-0.165 9.198979 2.684994 13.35897l-0.064999 0.3c0.195 0.181 0.404999 0.340999 0.609998 0.520998 2.126995 2.819994 5.086989 5.319988 8.684981 7.299984 47.099894 37.719915 107.211758 55.659874 166.939623 52.879881 59.722865 2.779994 119.84273-15.159966 166.932623-52.879881 3.599992-1.978996 6.560985-4.47899 8.689981-7.299984 0.205-0.18 0.408999-0.339999 0.608998-0.520998l-0.063999-0.3c2.849994-4.159991 4.019991-8.83998 2.684994-13.35897l-35.149921-119.130731c25.149943-9.869978 48.89989-22.20995 70.85084-36.769917l61.729861 54.659877c-0.22 0-0.444999 0.02-0.654999 0.029l13.779969 11.589974 21.659951 19.180956c1.244997 1.099998 2.693994 1.919996 4.209991 2.599994l11.584974 9.739978c12.464972-2.770994 24.864944-6.409986 37.069916-11.159974 110.550751-42.959903 168.61162-153.280654 141.420681-257.44042zM855.55351 834.680397c-1.344997 0.520999-2.704994 0.978998-4.059991 1.478997l-109.984752-97.389781c-8.139982-7.209984-22.909948-5.089989-32.975925 4.75999-0.929998 0.909998-1.709996 1.889996-2.493995 2.850993-25.880942 18.659958-54.920876 33.698924-86.285805 44.2399l0.15 0.239c-1.019998 0.181-2.034995 0.289999-3.063993 0.549999-14.090968 3.609992-23.085948 14.689967-20.109955 24.790944l36.834917 124.858718c-35.46492 24.419945-78.714822 35.68092-121.557726 33.220925-42.849903 2.459994-86.097806-8.80098-121.560726-33.220925L427.283476 816.200439c2.976993-10.100977-6.022986-21.180952-20.109955-24.790944-1.026998-0.259999-2.044995-0.368999-3.066993-0.549999l0.152-0.239c-31.367929-10.540976-60.412864-25.579942-86.294805-44.2399-0.784998-0.970998-1.559996-1.939996-2.489995-2.850993-10.064977-9.849978-24.827944-11.969973-32.972925-4.75999l-109.989752 97.389781c-1.352997-0.499999-2.711994-0.958998-4.059991-1.478997C86.803244 802.939469 41.988345 723.960647 55.786314 646.720821l136.229693-26.270941c11.009975-2.119995 17.53496-14.629967 14.569967-27.929937a30.139932 30.139932 0 0 0-1.539997-4.890989c-6.716985-23.908946-10.364977-48.96989-10.364976-74.849831 0-25.020944 3.382992-49.279889 9.682978-72.469836 0.22-0.439999 0.499999-0.829998 0.704998-1.290997 1.429997-3.198993 2.229995-6.448985 2.474995-9.599979 0.035-0.109 0.065-0.22 0.098-0.329999l-0.098-0.029c0.586999-9.02998-3.481992-17.079961-11.117975-20.040955l-140.159684-54.278877c-0.06-1.350997-0.163-2.689994-0.189999-4.050991-1.804996-82.329814 57.70987-152.389656 139.204685-171.858612l80.864818 105.358762c6.534985 8.509981 21.467952 9.00998 33.349925 1.109997 0.764998-0.509999 1.407997-1.100998 2.109995-1.649996l0.143 0.171c29.204934-22.14095 62.687859-39.569911 99.162776-50.979885l-0.777998-1.239997c12.322972-4.31999 19.907955-14.449967 17.149961-23.799947l-36.837917-124.849718c35.46292-24.429945 78.709822-35.67992 121.560726-33.219925 42.842903-2.459994 86.092806 8.78998 121.557726 33.219925l-36.834917 124.850718c-2.759994 9.359979 4.819989 19.478956 17.148961 23.799947l-0.778998 1.239997c36.474918 11.409974 69.959842 28.839935 99.164776 50.979885l0.145-0.16c0.699998 0.538999 1.340997 1.129997 2.104995 1.639996 11.879973 7.898982 26.80994 7.398983 33.350925-1.119997l80.863818-105.349762c81.494816 19.469956 141.010682 89.528798 139.200685 171.858612-0.025 1.359997-0.125 2.699994-0.189999 4.050991l-140.154684 54.278877c-7.634983 2.960993-11.704974 11.010975-11.119975 20.040955l-0.1 0.029c0.04 0.11 0.064 0.229999 0.1 0.329999 0.244999 3.149993 1.049998 6.399986 2.479995 9.599979 0.199 0.460999 0.478999 0.839998 0.698998 1.279997a275.914378 275.914378 0 0 1 9.685978 72.479836c0 25.869942-3.645992 50.939885-10.364976 74.839831a30.063932 30.063932 0 0 0-1.539997 4.899989c-2.964993 13.29997 3.559992 25.809942 14.569967 27.929937l136.225693 26.270941c13.798969 77.240826-31.01693 156.219648-112.666746 187.960576z" fill="" p-id="1681"></path><path d="M512.006285 339.720514c-102.234769 0-185.110582 77.139826-185.110582 172.279611s82.874813 172.279611 185.110582 172.279611c102.222769 0 185.102582-77.139826 185.102582-172.279611s-82.879813-172.279611-185.102582-172.279611z m0 296.119332c-73.020835 0-132.217702-55.099876-132.217702-123.059723s59.196866-123.060722 132.217702-123.060722c73.017835 0 132.217702 55.100876 132.217702 123.060722s-59.199866 123.059722-132.217702 123.059723z" fill="" p-id="1682"></path></svg>