<svg width="22" height="22" viewBox="0 0 22 22" xmlns="http://www.w3.org/2000/svg">
<g clip-path="url(#clip0_1_1200)">
<path d="M22 13.8631V20.9691C22 21.2426 21.8913 21.5049 21.698 21.6983C21.5046 21.8917 21.2423 22.0004 20.9688 22.0004H1.03125C0.757746 22.0004 0.495443 21.8917 0.302046 21.6983C0.108649 21.5049 0 21.2426 0 20.9691L0 13.8631C0 13.5896 0.108649 13.3273 0.302046 13.1339C0.495443 12.9405 0.757746 12.8319 1.03125 12.8319C1.30475 12.8319 1.56706 12.9405 1.76045 13.1339C1.95385 13.3273 2.0625 13.5896 2.0625 13.8631V19.9379H19.9375V13.8631C19.9375 13.5896 20.0462 13.3273 20.2395 13.1339C20.4329 12.9405 20.6952 12.8319 20.9688 12.8319C21.2423 12.8319 21.5046 12.9405 21.698 13.1339C21.8913 13.3273 22 13.5896 22 13.8631ZM5.30475 8.20223L9.98525 3.52035V16.2707C9.98525 16.5442 10.0939 16.8065 10.2873 16.9999C10.4807 17.1933 10.743 17.302 11.0165 17.302C11.29 17.302 11.5523 17.1933 11.7457 16.9999C11.9391 16.8065 12.0478 16.5442 12.0478 16.2707V3.52173L16.7283 8.2036C16.9217 8.39706 17.1841 8.50574 17.4577 8.50574C17.7313 8.50574 17.9937 8.39706 18.1871 8.2036C18.3806 8.01014 18.4893 7.74776 18.4893 7.47416C18.4893 7.20057 18.3806 6.93819 18.1871 6.74473L11.7466 0.302851C11.6509 0.206857 11.5373 0.130691 11.4121 0.0787215C11.2869 0.0267517 11.1527 0 11.0172 0C10.8817 0 10.7475 0.0267517 10.6223 0.0787215C10.4971 0.130691 10.3834 0.206857 10.2878 0.302851L3.84725 6.74335C3.65931 6.93776 3.55524 7.19821 3.55746 7.4686C3.55968 7.73899 3.66801 7.99769 3.85913 8.18899C4.05024 8.38028 4.30884 8.48886 4.57923 8.49133C4.84962 8.49381 5.11017 8.38999 5.30475 8.20223Z"/>
</g>
<defs>
<clipPath id="clip0_1_1200">
<rect width="22" height="22"/>
</clipPath>
</defs>
</svg>
