<svg width="18" height="18" viewBox="0 0 18 18" fill="none" xmlns="http://www.w3.org/2000/svg">
<path d="M9 0C13.97 0 18 3.58 18 8C18 10.76 15.76 13 13 13H11.23C10.4 13 9.73 13.67 9.73 14.5C9.73 14.88 9.88 15.23 10.11 15.49C10.35 15.76 10.5 16.11 10.5 16.5C10.5 17.33 9.81 18 9 18C6.61305 18 4.32387 17.0518 2.63604 15.364C0.948211 13.6761 0 11.3869 0 9C0 6.61305 0.948211 4.32387 2.63604 2.63604C4.32387 0.948211 6.61305 3.55683e-08 9 0ZM7.93 14.5C7.93 12.676 9.406 11.2 11.23 11.2H13C14.766 11.2 16.2 9.766 16.2 8C16.2 4.625 13.02 1.8 9 1.8C7.14164 1.79778 5.35439 2.5142 4.01208 3.7994C2.66977 5.0846 1.87638 6.83903 1.79785 8.69574C1.71932 10.5524 2.36173 12.3676 3.59072 13.7616C4.81971 15.1555 6.54009 16.0203 8.392 16.175C8.09036 15.6683 7.93077 15.0897 7.93 14.5ZM4.95 9C4.59196 9 4.24858 8.85777 3.99541 8.60459C3.74223 8.35142 3.6 8.00804 3.6 7.65C3.6 7.29196 3.74223 6.94858 3.99541 6.69541C4.24858 6.44223 4.59196 6.3 4.95 6.3C5.30804 6.3 5.65142 6.44223 5.90459 6.69541C6.15777 6.94858 6.3 7.29196 6.3 7.65C6.3 8.00804 6.15777 8.35142 5.90459 8.60459C5.65142 8.85777 5.30804 9 4.95 9ZM13.05 9C12.692 9 12.3486 8.85777 12.0954 8.60459C11.8422 8.35142 11.7 8.00804 11.7 7.65C11.7 7.29196 11.8422 6.94858 12.0954 6.69541C12.3486 6.44223 12.692 6.3 13.05 6.3C13.408 6.3 13.7514 6.44223 14.0046 6.69541C14.2578 6.94858 14.4 7.29196 14.4 7.65C14.4 8.00804 14.2578 8.35142 14.0046 8.60459C13.7514 8.85777 13.408 9 13.05 9ZM9 6.3C8.64196 6.3 8.29858 6.15777 8.04541 5.90459C7.79223 5.65142 7.65 5.30804 7.65 4.95C7.65 4.59196 7.79223 4.24858 8.04541 3.99541C8.29858 3.74223 8.64196 3.6 9 3.6C9.35804 3.6 9.70142 3.74223 9.95459 3.99541C10.2078 4.24858 10.35 4.59196 10.35 4.95C10.35 5.30804 10.2078 5.65142 9.95459 5.90459C9.70142 6.15777 9.35804 6.3 9 6.3Z" fill="#8C6584"/>
</svg>
