<?xml version="1.0" standalone="no"?><!DOCTYPE svg PUBLIC "-//W3C//DTD SVG 1.1//EN" "http://www.w3.org/Graphics/SVG/1.1/DTD/svg11.dtd"><svg t="1719636657746" class="icon" viewBox="0 0 1117 1024" version="1.1" xmlns="http://www.w3.org/2000/svg" p-id="23169" xmlns:xlink="http://www.w3.org/1999/xlink" width="218.1640625" height="200"><path d="M977.454545 0a139.636364 139.636364 0 0 1 139.403637 131.444364L1117.090909 139.636364v744.727272a139.636364 139.636364 0 0 1-131.444364 139.403637L977.454545 1024H139.636364a139.636364 139.636364 0 0 1-139.403637-131.444364L0 884.363636V139.636364A139.636364 139.636364 0 0 1 131.444364 0.232727L139.636364 0h837.818181z m46.545455 302.545455h-122.228364l-7.214545 5.818181-4.608-5.818181h-267.450182l-7.214545 5.818181-4.608-5.818181H343.226182l-7.214546 5.818181L331.403636 302.545455H93.090909V884.363636a46.545455 46.545455 0 0 0 41.099636 46.219637L139.636364 930.909091h837.818181a46.545455 46.545455 0 0 0 46.219637-41.099636L1024 884.363636V302.545455zM484.212364 422.818909l4.654545 2.420364 279.272727 162.909091a46.545455 46.545455 0 0 1 5.12 76.986181l-5.12 3.444364-279.272727 162.909091a46.545455 46.545455 0 0 1-69.678545-34.909091L418.909091 791.272727v-325.818182a46.545455 46.545455 0 0 1 65.303273-42.635636zM512 546.443636v163.793455l140.381091-81.92L512 546.443636zM163.84 93.090909H139.636364a46.545455 46.545455 0 0 0-46.219637 41.099636L93.090909 139.636364v69.818181h163.84l-93.090909-116.363636z m279.272727 0H282.996364l93.090909 116.363636h160.116363l-93.090909-116.363636z m279.272728 0h-160.116364l93.090909 116.363636h160.116364l-93.090909-116.363636zM977.454545 93.090909h-135.912727l93.090909 116.363636H1024V139.636364a46.545455 46.545455 0 0 0-41.099636-46.219637L977.454545 93.090909z" fill="#008df0" p-id="23170"></path></svg>