<svg width="22" height="22" viewBox="0 0 22 22" xmlns="http://www.w3.org/2000/svg">
<g clip-path="url(#clip0_1_1192)">
<path d="M10.9938 15.7372C12.2843 15.7358 13.5215 15.2226 14.434 14.3101C15.3465 13.3976 15.8597 12.1604 15.861 10.8699V4.86721C15.861 3.57635 15.3482 2.33835 14.4354 1.42557C13.5227 0.512794 12.2847 0 10.9938 0C9.70293 0 8.46494 0.512794 7.55216 1.42557C6.63938 2.33835 6.12659 3.57635 6.12659 4.86721V10.8699C6.12791 12.1604 6.64113 13.3976 7.55362 14.3101C8.46612 15.2226 9.70334 15.7358 10.9938 15.7372ZM7.86238 10.8699V4.86721C7.90757 4.06861 8.25665 3.31758 8.83801 2.7682C9.41937 2.21881 10.1889 1.91272 10.9888 1.91272C11.7887 1.91272 12.5582 2.21881 13.1396 2.7682C13.7209 3.31758 14.07 4.06861 14.1152 4.86721V10.8699C14.07 11.6685 13.7209 12.4196 13.1396 12.969C12.5582 13.5183 11.7887 13.8244 10.9888 13.8244C10.1889 13.8244 9.41937 13.5183 8.83801 12.969C8.25665 12.4196 7.90757 11.6685 7.86238 10.8699Z"/>
<path d="M16.5613 16.6474C18.0325 15.1587 18.8583 13.1504 18.8598 11.0574V7.62082C18.8598 7.39064 18.7684 7.16989 18.6056 7.00713C18.4429 6.84437 18.2221 6.75293 17.992 6.75293C17.7618 6.75293 17.541 6.84437 17.3783 7.00713C17.2155 7.16989 17.1241 7.39064 17.1241 7.62082V11.0574C17.1334 12.693 16.4929 14.2654 15.3434 15.429C14.1939 16.5926 12.6294 17.2521 10.9938 17.2627C9.35837 17.2515 7.79427 16.5917 6.6449 15.4282C5.49553 14.2648 4.85483 12.6928 4.86348 11.0574V7.62082C4.86348 7.39064 4.77204 7.16989 4.60928 7.00713C4.44652 6.84437 4.22577 6.75293 3.99559 6.75293C3.76541 6.75293 3.54466 6.84437 3.38189 7.00713C3.21913 7.16989 3.12769 7.39064 3.12769 7.62082V11.0574C3.1262 12.1114 3.33628 13.155 3.74547 14.1263C4.13985 15.0667 4.7113 15.9227 5.42874 16.6474C6.68649 17.9285 8.3469 18.7375 10.1309 18.9385V20.2641H6.49422C6.26404 20.2641 6.04329 20.3555 5.88053 20.5183C5.71777 20.681 5.62633 20.9018 5.62633 21.132C5.62633 21.3621 5.71777 21.5829 5.88053 21.7457C6.04329 21.9084 6.26404 21.9999 6.49422 21.9999H15.4983C15.7285 21.9999 15.9492 21.9084 16.112 21.7457C16.2748 21.5829 16.3662 21.3621 16.3662 21.132C16.3662 20.9018 16.2748 20.681 16.112 20.5183C15.9492 20.3555 15.7285 20.2641 15.4983 20.2641H11.8617V18.9385C13.6445 18.7359 15.3036 17.9271 16.5613 16.6474Z" />
</g>
<defs>
<clipPath id="clip0_1_1192">
<rect width="22" height="22"/>
</clipPath>
</defs>
</svg>
