<?xml version="1.0" standalone="no"?><!DOCTYPE svg PUBLIC "-//W3C//DTD SVG 1.1//EN" "http://www.w3.org/Graphics/SVG/1.1/DTD/svg11.dtd"><svg t="1714855236562" class="icon" viewBox="0 0 1024 1024" version="1.1" xmlns="http://www.w3.org/2000/svg" p-id="1647" xmlns:xlink="http://www.w3.org/1999/xlink" width="200" height="200"><path d="M513 19.7c-272.9 0-495 222.1-495 495 0 86 22.4 170.6 64.7 244.9 8.6 15.1-4.4 43.8-18.3 74.2-17.9 39.5-25.1 59.9-17.7 68.5 2.2 2.9 7.3 4.4 15.5 4.4 14.5 0 35.7-4.7 56.3-9.2 21.6-4.8 42.1-9.3 56.9-9.3 8.7 0 14.5 1.5 18.3 4.8 89.1 75.2 202.5 116.7 319.3 116.7 272.9 0 495-222 495-495 0-272.9-222-495-495-495z m0 922.7c-100.9 0-198.9-35.8-275.8-100.8-16.1-13.6-37-20.6-61.8-20.6-10.8 0-22.1 1.3-33.7 3.2 11.9-32.1 17.8-65.8-0.5-97.9-36.6-64.1-55.9-137.3-55.9-211.6C85.3 278.9 277.2 87 513 87c235.9 0 427.8 191.9 427.8 427.7 0 235.8-191.9 427.7-427.8 427.7z" fill="#333333" p-id="1648"></path><path d="M445.2 323.5c18.5 0 33.6 15.1 33.6 33.6v315.2c0 18.5-15.1 33.6-33.6 33.6s-33.6-15.1-33.6-33.6V357.1c-0.1-18.5 15.1-33.6 33.6-33.6zM580.9 373.6c18.5 0 33.6 15.1 33.6 33.6v215c0 18.5-15.1 33.6-33.6 33.6s-33.6-15.1-33.6-33.6v-215c0-18.5 15.2-33.6 33.6-33.6zM716.7 449.3c18.5 0 33.6 15.1 33.6 33.6v63.5c0 18.5-15.1 33.6-33.6 33.6s-33.6-15.1-33.6-33.6v-63.5c0-18.4 15.1-33.6 33.6-33.6zM309.4 449.3c18.5 0 33.6 15.1 33.6 33.6v63.5c0 18.5-15.1 33.6-33.6 33.6s-33.6-15.1-33.6-33.6v-63.5c-0.1-18.4 15.1-33.6 33.6-33.6z" fill="#333333" p-id="1649"></path></svg>